<?xml version="1.0" encoding="UTF-8" ?>
<!DOCTYPE svg PUBLIC "-//W3C//DTD SVG 1.1//EN" "http://www.w3.org/Graphics/SVG/1.1/DTD/svg11.dtd">
<svg width="1920pt" height="46pt" viewBox="0 0 1920 46" version="1.1" xmlns="http://www.w3.org/2000/svg">
<path fill="#000000" d=" M 1917.56 0.00 L 1920.00 0.00 L 1920.00 46.00 L 0.00 46.00 L 0.00 2.01 C 49.27 10.66 98.99 17.04 148.93 20.16 C 171.29 21.12 193.56 23.36 215.89 24.74 C 261.83 28.13 307.96 29.02 353.97 26.73 C 374.73 26.07 395.42 24.14 416.16 23.08 C 492.44 18.66 568.66 13.11 645.02 10.32 C 698.99 8.37 753.10 7.20 807.05 10.53 C 829.26 11.77 851.29 15.04 873.32 17.98 C 892.52 20.80 911.80 23.76 930.41 29.41 C 940.33 32.49 950.39 36.38 958.08 43.61 C 972.98 31.56 991.90 26.27 1010.29 22.21 C 1026.40 18.75 1042.76 16.67 1059.14 15.05 C 1104.29 10.84 1149.67 10.29 1194.98 9.73 C 1251.06 9.93 1307.16 11.17 1363.09 15.44 C 1375.09 16.25 1387.03 17.74 1399.05 18.32 C 1454.02 21.40 1508.93 25.69 1563.96 27.80 C 1573.30 28.30 1582.68 28.43 1592.03 27.78 C 1646.42 27.11 1700.79 24.91 1755.05 21.20 C 1806.87 17.39 1858.75 12.57 1909.81 2.66 C 1912.51 2.16 1914.97 0.93 1917.56 0.00 Z" />
</svg>
