<?xml version="1.0" encoding="UTF-8" ?>
<!DOCTYPE svg PUBLIC "-//W3C//DTD SVG 1.1//EN" "http://www.w3.org/Graphics/SVG/1.1/DTD/svg11.dtd">
<svg width="1918pt" height="43pt" viewBox="0 0 1918 43" version="1.1" xmlns="http://www.w3.org/2000/svg">
<path fill="#000102" d=" M 1844.38 12.78 C 1869.04 9.62 1893.75 6.23 1918.00 0.65 L 1918.00 43.00 L 0.00 43.00 L 0.00 2.07 C 54.29 11.47 109.07 18.47 164.14 20.94 C 204.74 23.97 245.35 27.42 286.09 27.85 C 317.54 28.50 349.00 27.20 380.39 25.45 C 402.26 23.75 424.16 22.68 446.05 21.33 C 529.30 16.09 612.56 10.56 695.97 8.86 C 745.21 8.40 794.68 7.75 843.62 14.03 C 867.94 17.23 892.35 20.14 916.29 25.62 C 930.84 29.21 945.98 33.19 957.72 42.98 L 959.13 42.68 C 970.77 33.85 984.67 28.67 998.68 24.97 C 1019.76 19.44 1041.45 16.72 1063.12 14.69 C 1094.99 11.81 1127.00 10.90 1158.98 10.12 C 1237.11 8.99 1315.38 10.60 1393.20 17.95 C 1451.54 21.07 1509.79 25.72 1568.18 27.93 C 1589.49 28.47 1610.79 26.98 1632.11 26.96 C 1703.01 24.88 1773.91 21.17 1844.38 12.78 Z" />
</svg>
